999
dxfrw 0.5.10
0
SECTION
2
HEADER
9
$ACADVER
1
AC1021
9
$HANDSEED
5
20000
9
$DWGCODEPAGE
3
ANSI_1252
9
$INSBASE
10
0
20
0
30
0
9
$EXTMIN
10
10000000000
20
10000000000
30
0
9
$EXTMAX
10
-10000000000
20
-10000000000
30
0
9
$LIMMIN
10
0
20
0
9
$LIMMAX
10
420
20
297
9
$ORTHOMODE
70
0
9
$LTSCALE
40
1
9
$TEXTSTYLE
7
STANDARD
9
$CLAYER
8
0
9
$DIMASZ
40
2.5
9
$DIMLFAC
40
1
9
$DIMSCALE
40
1
9
$DIMEXO
40
0.625
9
$DIMEXE
40
1.25
9
$DIMTXT
40
2.5
9
$DIMTSZ
40
0
9
$DIMAUNIT
70
0
9
$DIMADEC
70
0
9
$DIMLUNIT
70
2
9
$DIMSTYLE
2
STANDARD
9
$DIMGAP
40
0.625
9
$DIMTIH
70
0
9
$LUNITS
70
2
9
$LUPREC
70
4
9
$AUNITS
70
0
9
$AUPREC
70
2
9
$SPLINESEGS
70
8
9
$GRIDMODE
70
1
9
$SNAPSTYLE
70
0
9
$PINSBASE
10
0
20
0
30
0
9
$PLIMMIN
10
0
20
0
9
$PLIMMAX
10
210
20
297
9
$INSUNITS
70
4
9
$PSVPSCALE
40
1
0
ENDSEC
0
SECTION
2
CLASSES
0
ENDSEC
0
SECTION
2
TABLES
0
TABLE
2
VPORT
5
8
330
0
100
AcDbSymbolTable
70
1
0
VPORT
5
31
330
2
100
AcDbSymbolTableRecord
100
AcDbViewportTableRecord
2
*ACTIVE
70
0
10
0
20
0
11
1
21
1
12
67.9452054795
22
41.095890411
13
0
23
0
14
10
24
10
15
10
25
10
16
0
26
0
36
1
17
0
27
0
37
0
40
164.383561644
41
1.65333333333
42
50
43
0
44
0
50
0
51
0
71
0
72
100
73
1
74
3
75
0
76
1
77
0
78
0
281
0
65
1
110
0
120
0
130
0
111
1
121
0
131
0
112
0
122
1
132
0
79
0
146
0
348
10020
60
7
61
5
292
1
282
1
141
0
142
0
63
250
421
3358443
0
ENDTAB
0
TABLE
2
LTYPE
5
5
330
0
100
AcDbSymbolTable
70
4
0
LTYPE
5
14
330
5
100
AcDbSymbolTableRecord
100
AcDbLinetypeTableRecord
2
ByBlock
70
0
3

72
65
73
0
40
0
0
LTYPE
5
15
330
5
100
AcDbSymbolTableRecord
100
AcDbLinetypeTableRecord
2
ByLayer
70
0
3

72
65
73
0
40
0
0
LTYPE
5
16
330
5
100
AcDbSymbolTableRecord
100
AcDbLinetypeTableRecord
2
Continuous
70
0
3
Solid line
72
65
73
0
40
0
0
LTYPE
5
32
330
5
100
AcDbSymbolTableRecord
100
AcDbLinetypeTableRecord
2
DOT
70
0
3
Dot . . . . . . . . . . . . . . . . . . . . . .
72
65
73
2
40
6.35
49
0
74
0
49
-6.35
74
0
0
LTYPE
5
33
330
5
100
AcDbSymbolTableRecord
100
AcDbLinetypeTableRecord
2
DOT2
70
0
3
Dot (.5x) .....................................
72
65
73
2
40
3.175
49
0
74
0
49
-3.175
74
0
0
LTYPE
5
34
330
5
100
AcDbSymbolTableRecord
100
AcDbLinetypeTableRecord
2
DOTX2
70
0
3
Dot (2x) .  .  .  .  .  .  .  .  .  .  .  .  .
72
65
73
2
40
12.7
49
0
74
0
49
-12.7
74
0
0
LTYPE
5
35
330
5
100
AcDbSymbolTableRecord
100
AcDbLinetypeTableRecord
2
DASHED
70
0
3
Dot . . . . . . . . . . . . . . . . . . . . . .
72
65
73
2
40
19.05
49
12.7
74
0
49
-6.35
74
0
0
LTYPE
5
36
330
5
100
AcDbSymbolTableRecord
100
AcDbLinetypeTableRecord
2
DASHED2
70
0
3
Dashed (.5x) _ _ _ _ _ _ _ _ _ _ _ _ _ _ _ _ _
72
65
73
2
40
9.525
49
6.35
74
0
49
-3.175
74
0
0
LTYPE
5
37
330
5
100
AcDbSymbolTableRecord
100
AcDbLinetypeTableRecord
2
DASHEDX2
70
0
3
Dashed (2x) ____  ____  ____  ____  ____  ___
72
65
73
2
40
38.1
49
25.4
74
0
49
-12.7
74
0
0
LTYPE
5
38
330
5
100
AcDbSymbolTableRecord
100
AcDbLinetypeTableRecord
2
DASHDOT
70
0
3
Dash dot __ . __ . __ . __ . __ . __ . __ . __
72
65
73
4
40
25.4
49
12.7
74
0
49
-6.35
74
0
49
0
74
0
49
-6.35
74
0
0
LTYPE
5
39
330
5
100
AcDbSymbolTableRecord
100
AcDbLinetypeTableRecord
2
DASHDOT2
70
0
3
Dash dot (.5x) _._._._._._._._._._._._._._._.
72
65
73
4
40
12.7
49
6.35
74
0
49
-3.175
74
0
49
0
74
0
49
-3.175
74
0
0
LTYPE
5
3A
330
5
100
AcDbSymbolTableRecord
100
AcDbLinetypeTableRecord
2
DASHDOTX2
70
0
3
Dash dot (2x) ____  .  ____  .  ____  .  ___
72
65
73
4
40
50.8
49
25.4
74
0
49
-12.7
74
0
49
0
74
0
49
-12.7
74
0
0
LTYPE
5
3B
330
5
100
AcDbSymbolTableRecord
100
AcDbLinetypeTableRecord
2
DIVIDE
70
0
3
Divide ____ . . ____ . . ____ . . ____ . . ____
72
65
73
6
40
31.75
49
12.7
74
0
49
-6.35
74
0
49
0
74
0
49
-6.35
74
0
49
0
74
0
49
-6.35
74
0
0
LTYPE
5
3C
330
5
100
AcDbSymbolTableRecord
100
AcDbLinetypeTableRecord
2
DIVIDE2
70
0
3
Divide (.5x) __..__..__..__..__..__..__..__.._
72
65
73
6
40
15.875
49
6.35
74
0
49
-3.175
74
0
49
0
74
0
49
-3.175
74
0
49
0
74
0
49
-3.175
74
0
0
LTYPE
5
3D
330
5
100
AcDbSymbolTableRecord
100
AcDbLinetypeTableRecord
2
DIVIDEX2
70
0
3
Divide (2x) ________  .  .  ________  .  .  _
72
65
73
6
40
63.5
49
25.4
74
0
49
-12.7
74
0
49
0
74
0
49
-12.7
74
0
49
0
74
0
49
-12.7
74
0
0
LTYPE
5
3E
330
5
100
AcDbSymbolTableRecord
100
AcDbLinetypeTableRecord
2
BORDER
70
0
3
Border __ __ . __ __ . __ __ . __ __ . __ __ .
72
65
73
6
40
44.45
49
12.7
74
0
49
-6.35
74
0
49
12.7
74
0
49
-6.35
74
0
49
0
74
0
49
-6.35
74
0
0
LTYPE
5
3F
330
5
100
AcDbSymbolTableRecord
100
AcDbLinetypeTableRecord
2
BORDER2
70
0
3
Border (.5x) __.__.__.__.__.__.__.__.__.__.__.
72
65
73
6
40
22.225
49
6.35
74
0
49
-3.175
74
0
49
6.35
74
0
49
-3.175
74
0
49
0
74
0
49
-3.175
74
0
0
LTYPE
5
40
330
5
100
AcDbSymbolTableRecord
100
AcDbLinetypeTableRecord
2
BORDERX2
70
0
3
Border (2x) ____  ____  .  ____  ____  .  ___
72
65
73
6
40
88.9
49
25.4
74
0
49
-12.7
74
0
49
25.4
74
0
49
-12.7
74
0
49
0
74
0
49
-12.7
74
0
0
LTYPE
5
41
330
5
100
AcDbSymbolTableRecord
100
AcDbLinetypeTableRecord
2
CENTER
70
0
3
Center ____ _ ____ _ ____ _ ____ _ ____ _ ____
72
65
73
4
40
50.8
49
31.75
74
0
49
-6.35
74
0
49
6.35
74
0
49
-6.35
74
0
0
LTYPE
5
42
330
5
100
AcDbSymbolTableRecord
100
AcDbLinetypeTableRecord
2
CENTER2
70
0
3
Center (.5x) ___ _ ___ _ ___ _ ___ _ ___ _ ___
72
65
73
4
40
28.575
49
19.05
74
0
49
-3.175
74
0
49
3.175
74
0
49
-3.175
74
0
0
LTYPE
5
43
330
5
100
AcDbSymbolTableRecord
100
AcDbLinetypeTableRecord
2
CENTERX2
70
0
3
Center (2x) ________  __  ________  __  _____
72
65
73
4
40
101.6
49
63.5
74
0
49
-12.7
74
0
49
12.7
74
0
49
-12.7
74
0
0
ENDTAB
0
TABLE
2
LAYER
5
2
330
0
100
AcDbSymbolTable
70
1
0
LAYER
5
10
330
2
100
AcDbSymbolTableRecord
100
AcDbLayerTableRecord
2
0
70
0
62
7
6
CONTINUOUS
370
0
390
F
0
LAYER
5
44
330
2
100
AcDbSymbolTableRecord
100
AcDbLayerTableRecord
2
cut
70
0
62
1
6
CONTINUOUS
370
0
390
F
0
LAYER
5
45
330
2
100
AcDbSymbolTableRecord
100
AcDbLayerTableRecord
2
engrave
70
0
62
7
6
CONTINUOUS
370
0
390
F
0
LAYER
5
46
330
2
100
AcDbSymbolTableRecord
100
AcDbLayerTableRecord
2
pweter
70
0
62
3
6
CONTINUOUS
370
0
390
F
0
LAYER
5
47
330
2
100
AcDbSymbolTableRecord
100
AcDbLayerTableRecord
2
3x10_Female
70
0
62
1
6
CONTINUOUS
370
0
390
F
0
LAYER
5
48
330
2
100
AcDbSymbolTableRecord
100
AcDbLayerTableRecord
2
cut_brackerts
70
0
62
1
6
CONTINUOUS
370
0
390
F
0
LAYER
5
49
330
2
100
AcDbSymbolTableRecord
100
AcDbLayerTableRecord
2
guide_brackets
70
0
62
5
6
CONTINUOUS
370
0
390
F
0
LAYER
5
4A
330
2
100
AcDbSymbolTableRecord
100
AcDbLayerTableRecord
2
24NeoPixelRing
70
0
62
2
6
CONTINUOUS
370
0
390
F
0
ENDTAB
0
TABLE
2
STYLE
5
3
330
0
100
AcDbSymbolTable
70
3
0
STYLE
5
4B
330
2
100
AcDbSymbolTableRecord
100
AcDbTextStyleTableRecord
2
Standard
70
0
40
0
41
1
50
0
71
0
42
1
3
txt
4

0
ENDTAB
0
TABLE
2
VIEW
5
6
330
0
100
AcDbSymbolTable
70
0
0
ENDTAB
0
TABLE
2
UCS
5
7
330
0
100
AcDbSymbolTable
70
0
0
ENDTAB
0
TABLE
2
APPID
5
9
330
0
100
AcDbSymbolTable
70
1
0
APPID
5
12
330
9
100
AcDbSymbolTableRecord
100
AcDbRegAppTableRecord
2
ACAD
70
0
0
ENDTAB
0
TABLE
2
DIMSTYLE
5
A
330
0
100
AcDbSymbolTable
70
1
100
AcDbDimStyleTable
71
1
0
DIMSTYLE
105
4C
330
A
100
AcDbSymbolTableRecord
100
AcDbDimStyleTableRecord
2
Standard
70
0
40
1
41
2.5
42
0.625
43
0.38
44
1.25
45
0
46
0
47
0
48
0
140
2.5
141
0.09
142
0
143
25.4
144
1
145
0
146
1
147
0.625
148
0
71
0
72
0
73
0
74
1
75
0
76
0
77
0
78
0
79
0
170
0
171
2
172
0
173
0
174
0
175
0
176
0
177
0
178
0
179
0
271
4
272
4
273
2
274
2
275
0
276
0
277
2
278
46
279
0
280
0
281
0
282
0
283
1
284
0
285
0
286
0
288
0
289
3
340
Standard
341

371
-2
372
-2
0
ENDTAB
0
TABLE
2
BLOCK_RECORD
5
1
330
0
100
AcDbSymbolTable
70
2
0
BLOCK_RECORD
5
1F
330
1
100
AcDbSymbolTableRecord
100
AcDbBlockTableRecord
2
*Model_Space
70
0
280
1
281
0
0
BLOCK_RECORD
5
1E
330
1
100
AcDbSymbolTableRecord
100
AcDbBlockTableRecord
2
*Paper_Space
70
0
280
1
281
0
0
BLOCK_RECORD
5
4D
330
1
100
AcDbSymbolTableRecord
100
AcDbBlockTableRecord
2
3x10_Female-0
70
0
280
1
281
0
0
BLOCK_RECORD
5
50
330
1
100
AcDbSymbolTableRecord
100
AcDbBlockTableRecord
2
3x10_Female-1
70
0
280
1
281
0
0
BLOCK_RECORD
5
53
330
1
100
AcDbSymbolTableRecord
100
AcDbBlockTableRecord
2
24NeoPixelRing-0
70
0
280
1
281
0
0
ENDTAB
0
ENDSEC
0
SECTION
2
BLOCKS
0
BLOCK
5
20
330
1F
100
AcDbEntity
8
0
100
AcDbBlockBegin
2
*Model_Space
70
0
10
0
20
0
30
0
3
*Model_Space
1

0
ENDBLK
5
21
330
1F
100
AcDbEntity
8
0
100
AcDbBlockEnd
0
BLOCK
5
1C
330
1B
100
AcDbEntity
8
0
100
AcDbBlockBegin
2
*Paper_Space
70
0
10
0
20
0
30
0
3
*Paper_Space
1

0
ENDBLK
5
1D
330
1F
100
AcDbEntity
8
0
100
AcDbBlockEnd
0
BLOCK
5
4E
330
4D
100
AcDbEntity
8
0
100
AcDbBlockBegin
2
3x10_Female-0
70
0
10
0
20
0
3
3x10_Female-0
1

0
LINE
5
56
100
AcDbEntity
8
3x10_Female
6
ByLayer
62
256
370
-1
100
AcDbLine
10
1.6
20
5.1
11
-1.6
21
5.1
0
LINE
5
57
100
AcDbEntity
8
3x10_Female
6
ByLayer
62
256
370
-1
100
AcDbLine
10
-1.6
20
5.1
11
-1.6
21
-5.1
0
LINE
5
58
100
AcDbEntity
8
3x10_Female
6
ByLayer
62
256
370
-1
100
AcDbLine
10
-1.6
20
-5.1
11
1.6
21
-5.1
0
LINE
5
59
100
AcDbEntity
8
3x10_Female
6
ByLayer
62
256
370
-1
100
AcDbLine
10
1.6
20
-5.1
11
1.6
21
5.1
0
ENDBLK
5
4F
330
4D
100
AcDbEntity
8
0
100
AcDbBlockEnd
0
BLOCK
5
51
330
50
100
AcDbEntity
8
0
100
AcDbBlockBegin
2
3x10_Female-1
70
0
10
0
20
0
3
3x10_Female-1
1

0
LINE
5
5A
100
AcDbEntity
8
3x10_Female
6
ByLayer
62
256
370
-1
100
AcDbLine
10
1.6
20
5.1
11
-1.6
21
5.1
0
LINE
5
5B
100
AcDbEntity
8
3x10_Female
6
ByLayer
62
256
370
-1
100
AcDbLine
10
-1.6
20
5.1
11
-1.6
21
-5.1
0
LINE
5
5C
100
AcDbEntity
8
3x10_Female
6
ByLayer
62
256
370
-1
100
AcDbLine
10
-1.6
20
-5.1
11
1.6
21
-5.1
0
LINE
5
5D
100
AcDbEntity
8
3x10_Female
6
ByLayer
62
256
370
-1
100
AcDbLine
10
1.6
20
-5.1
11
1.6
21
5.1
0
ENDBLK
5
52
330
50
100
AcDbEntity
8
0
100
AcDbBlockEnd
0
BLOCK
5
54
330
53
100
AcDbEntity
8
0
100
AcDbBlockBegin
2
24NeoPixelRing-0
70
0
10
0
20
0
3
24NeoPixelRing-0
1

0
CIRCLE
5
5E
100
AcDbEntity
8
24NeoPixelRing
6
ByLayer
62
256
370
-1
100
AcDbCircle
10
0
20
0
40
32.5
0
CIRCLE
5
5F
100
AcDbEntity
8
24NeoPixelRing
6
ByLayer
62
256
370
-1
100
AcDbCircle
10
0
20
0
40
26
0
ENDBLK
5
55
330
53
100
AcDbEntity
8
0
100
AcDbBlockEnd
0
ENDSEC
0
SECTION
2
ENTITIES
0
HATCH
5
60
100
AcDbEntity
8
pweter
6
ByLayer
62
256
370
-1
100
AcDbHatch
10
0
20
0
30
0
210
0
220
0
230
1
2
SOLID
70
1
71
0
91
1
92
0
93
16
72
1
10
-24.8528137424
20
60
11
24.8528137424
21
60
72
1
10
24.8528137424
20
60
11
60
21
24.8528137424
72
1
10
60
20
24.8528137424
11
60
21
-24.8528137424
72
1
10
60
20
-24.8528137424
11
24.8528137424
21
-60
72
1
10
24.8528137424
20
-60
11
-24.8528137424
21
-60
72
1
10
-24.8528137424
20
-60
11
-60
21
-24.8528137424
72
1
10
-60
20
-24.8528137424
11
-60
21
24.8528137424
72
1
10
-60
20
24.8528137424
11
-24.8528137424
21
60
72
1
10
-70
20
28.9949493661
11
-28.9949493661
21
70
72
1
10
-28.9949493661
20
70
11
28.9949493661
21
70
72
1
10
28.9949493661
20
70
11
70
21
28.9949493661
72
1
10
70
20
28.9949493661
11
70
21
-28.9949493661
72
1
10
70
20
-28.9949493661
11
28.9949493661
21
-70
72
1
10
28.9949493661
20
-70
11
-28.9949493661
21
-70
72
1
10
-28.9949493661
20
-70
11
-70
21
-28.9949493661
72
1
10
-70
20
-28.9949493661
11
-70
21
28.9949493661
97
0
75
0
76
1
98
0
0
HATCH
5
61
100
AcDbEntity
8
pweter
6
ByLayer
62
256
370
-1
100
AcDbHatch
10
0
20
0
30
0
210
0
220
0
230
1
2
SOLID
70
1
71
0
91
1
92
0
93
16
72
1
10
-12
20
4.97056274848
11
-4.97056274848
21
12
72
1
10
-4.97056274848
20
12
11
4.97056274848
21
12
72
1
10
4.97056274848
20
12
11
12
21
4.97056274848
72
1
10
12
20
4.97056274848
11
12
21
-4.97056274848
72
1
10
12
20
-4.97056274848
11
4.97056274848
21
-12
72
1
10
4.97056274848
20
-12
11
-4.97056274848
21
-12
72
1
10
-4.97056274848
20
-12
11
-12
21
-4.97056274848
72
1
10
-12
20
-4.97056274848
11
-12
21
4.97056274848
72
1
10
-18
20
7.45584412272
11
-7.45584412272
21
18
72
1
10
-7.45584412272
20
18
11
7.45584412272
21
18
72
1
10
7.45584412272
20
18
11
18
21
7.45584412272
72
1
10
18
20
7.45584412272
11
18
21
-7.45584412272
72
1
10
18
20
-7.45584412272
11
7.45584412272
21
-18
72
1
10
7.45584412272
20
-18
11
-7.45584412272
21
-18
72
1
10
-7.45584412272
20
-18
11
-18
21
-7.45584412272
72
1
10
-18
20
-7.45584412272
11
-18
21
7.45584412272
97
0
75
0
76
1
98
0
0
LWPOLYLINE
5
62
100
AcDbEntity
8
cut
6
ByLayer
62
256
370
-1
100
AcDbPolyline
90
8
70
1
43
0
10
80
20
-33.1370849898
10
33.1370849898
20
-80
10
-33.1370849898
20
-80
10
-80
20
-33.1370849898
10
-80
20
33.1370849898
10
-33.1370849898
20
80
10
33.1370849898
20
80
10
80
20
33.1370849898
0
LWPOLYLINE
5
63
100
AcDbEntity
8
cut
6
ByLayer
62
256
370
-1
100
AcDbPolyline
90
8
70
1
43
0
10
-70
20
-28.9949493661
10
-70
20
28.9949493661
10
-28.9949493661
20
70
10
28.9949493661
20
70
10
70
20
28.9949493661
10
70
20
-28.9949493661
10
28.9949493661
20
-70
10
-28.9949493661
20
-70
0
LWPOLYLINE
5
64
100
AcDbEntity
8
cut
6
ByLayer
62
256
370
-1
100
AcDbPolyline
90
8
70
1
43
0
10
-24.8528137424
20
60
10
24.8528137424
20
60
10
60
20
24.8528137424
10
60
20
-24.8528137424
10
24.8528137424
20
-60
10
-24.8528137424
20
-60
10
-60
20
-24.8528137424
10
-60
20
24.8528137424
0
LWPOLYLINE
5
65
100
AcDbEntity
8
cut
6
ByLayer
62
256
370
-1
100
AcDbPolyline
90
8
70
1
43
0
10
-12
20
-4.97056274848
10
-12
20
4.97056274848
10
-4.97056274848
20
12
10
4.97056274848
20
12
10
12
20
4.97056274848
10
12
20
-4.97056274848
10
4.97056274848
20
-12
10
-4.97056274848
20
-12
0
LWPOLYLINE
5
66
100
AcDbEntity
8
cut
6
ByLayer
62
256
370
-1
100
AcDbPolyline
90
8
70
1
43
0
10
-18
20
-7.45584412272
10
-18
20
7.45584412272
10
-7.45584412272
20
18
10
7.45584412272
20
18
10
18
20
7.45584412272
10
18
20
-7.45584412272
10
7.45584412272
20
-18
10
-7.45584412272
20
-18
0
LWPOLYLINE
5
67
100
AcDbEntity
8
cut
6
ByLayer
62
256
370
-1
100
AcDbPolyline
90
4
70
1
43
0
10
-1.5
20
57
10
-20.3629964544
20
57
10
-16.0137540495
20
46.5
10
-1.5
20
46.5
0
LWPOLYLINE
5
68
100
AcDbEntity
8
cut
6
ByLayer
62
256
370
-1
100
AcDbPolyline
90
4
70
1
43
0
10
20.3629964544
20
57
10
1.5
20
57
10
1.5
20
46.5
10
16.0137540495
20
46.5
0
LWPOLYLINE
5
69
100
AcDbEntity
8
cut
6
ByLayer
62
256
370
-1
100
AcDbPolyline
90
4
70
1
43
0
10
11.043191301
20
34.5
10
-11.043191301
20
34.5
10
-14.7711133624
20
43.5
10
14.7711133624
20
43.5
0
LWPOLYLINE
5
6A
100
AcDbEntity
8
cut
6
ByLayer
62
256
370
-1
100
AcDbPolyline
90
4
70
1
43
0
10
5.45130820896
20
21
10
1.5
20
21
10
1.5
20
31.5
10
9.80055061388
20
31.5
0
LWPOLYLINE
5
6B
100
AcDbEntity
8
cut
6
ByLayer
62
256
370
-1
100
AcDbPolyline
90
4
70
1
43
0
10
-9.80055061388
20
31.5
10
-1.5
20
31.5
10
-1.5
20
21
10
-5.45130820896
20
21
0
LWPOLYLINE
5
6C
100
AcDbEntity
8
cut
6
ByLayer
62
256
370
-1
100
AcDbPolyline
90
4
70
1
43
0
10
-15.3438278089
20
29.2038994058
10
-21.2132034356
20
23.3345237792
10
-13.7885822331
20
15.9099025767
10
-10.994585404
20
18.7038994058
0
LWPOLYLINE
5
6D
100
AcDbEntity
8
cut
6
ByLayer
62
256
370
-1
100
AcDbPolyline
90
4
70
1
43
0
10
-29.2038994058
20
15.3438278089
10
-23.3345237792
20
21.2132034356
10
-15.9099025767
20
13.7885822331
10
-18.7038994058
20
10.994585404
0
LWPOLYLINE
5
6E
100
AcDbEntity
8
cut
6
ByLayer
62
256
370
-1
100
AcDbPolyline
90
4
70
1
43
0
10
-20.3143905574
20
41.2038994058
10
-41.2038994058
20
20.3143905574
10
-32.2038994058
20
16.5864684961
10
-16.5864684961
20
32.2038994058
0
LWPOLYLINE
5
6F
100
AcDbEntity
8
cut
6
ByLayer
62
256
370
-1
100
AcDbPolyline
90
4
70
1
43
0
10
-25.9062736495
20
54.7038994058
10
-39.2444263559
20
41.3657466994
10
-31.8198051534
20
33.941125497
10
-21.5570312445
20
44.2038994058
0
LWPOLYLINE
5
70
100
AcDbEntity
8
cut
6
ByLayer
62
256
370
-1
100
AcDbPolyline
90
4
70
1
43
0
10
-33.941125497
20
31.8198051534
10
-44.2038994058
20
21.5570312445
10
-54.7038994058
20
25.9062736495
10
-41.3657466994
20
39.2444263559
0
LWPOLYLINE
5
71
100
AcDbEntity
8
cut
6
ByLayer
62
256
370
-1
100
AcDbPolyline
90
4
70
1
43
0
10
-57
20
20.3629964544
10
-57
20
1.5
10
-46.5
20
1.5
10
-46.5
20
16.0137540495
0
LWPOLYLINE
5
72
100
AcDbEntity
8
cut
6
ByLayer
62
256
370
-1
100
AcDbPolyline
90
4
70
1
43
0
10
-34.5
20
11.043191301
10
-34.5
20
-11.043191301
10
-43.5
20
-14.7711133624
10
-43.5
20
14.7711133624
0
LWPOLYLINE
5
73
100
AcDbEntity
8
cut
6
ByLayer
62
256
370
-1
100
AcDbPolyline
90
4
70
1
43
0
10
-21
20
5.45130820896
10
-21
20
1.5
10
-31.5
20
1.5
10
-31.5
20
9.80055061388
0
LWPOLYLINE
5
74
100
AcDbEntity
8
cut
6
ByLayer
62
256
370
-1
100
AcDbPolyline
90
4
70
1
43
0
10
-31.5
20
-9.80055061388
10
-31.5
20
-1.5
10
-21
20
-1.5
10
-21
20
-5.45130820896
0
LWPOLYLINE
5
75
100
AcDbEntity
8
cut
6
ByLayer
62
256
370
-1
100
AcDbPolyline
90
4
70
1
43
0
10
-57
20
-1.5
10
-57
20
-20.3629964544
10
-46.5
20
-16.0137540495
10
-46.5
20
-1.5
0
LWPOLYLINE
5
76
100
AcDbEntity
8
cut
6
ByLayer
62
256
370
-1
100
AcDbPolyline
90
4
70
1
43
0
10
-54.7038994058
20
-25.9062736495
10
-41.3657466994
20
-39.2444263559
10
-33.941125497
20
-31.8198051534
10
-44.2038994058
20
-21.5570312445
0
LWPOLYLINE
5
77
100
AcDbEntity
8
cut
6
ByLayer
62
256
370
-1
100
AcDbPolyline
90
4
70
1
43
0
10
-32.2038994058
20
-16.5864684961
10
-16.5864684961
20
-32.2038994058
10
-20.3143905574
20
-41.2038994058
10
-41.2038994058
20
-20.3143905574
0
LWPOLYLINE
5
78
100
AcDbEntity
8
cut
6
ByLayer
62
256
370
-1
100
AcDbPolyline
90
4
70
1
43
0
10
-29.2038994058
20
-15.3438278089
10
-23.3345237792
20
-21.2132034356
10
-15.9099025767
20
-13.7885822331
10
-18.7038994058
20
-10.994585404
0
LWPOLYLINE
5
79
100
AcDbEntity
8
cut
6
ByLayer
62
256
370
-1
100
AcDbPolyline
90
4
70
1
43
0
10
-15.3438278089
20
-29.2038994058
10
-21.2132034356
20
-23.3345237792
10
-13.7885822331
20
-15.9099025767
10
-10.994585404
20
-18.7038994058
0
LWPOLYLINE
5
7A
100
AcDbEntity
8
cut
6
ByLayer
62
256
370
-1
100
AcDbPolyline
90
4
70
1
43
0
10
-1.5
20
-31.5
10
-1.5
20
-21
10
-5.45130820896
20
-21
10
-9.80055061388
20
-31.5
0
LWPOLYLINE
5
7B
100
AcDbEntity
8
cut
6
ByLayer
62
256
370
-1
100
AcDbPolyline
90
4
70
1
43
0
10
9.80055061388
20
-31.5
10
1.5
20
-31.5
10
1.5
20
-21
10
5.45130820896
20
-21
0
LWPOLYLINE
5
7C
100
AcDbEntity
8
cut
6
ByLayer
62
256
370
-1
100
AcDbPolyline
90
4
70
1
43
0
10
-14.7711133624
20
-43.5
10
14.7711133624
20
-43.5
10
11.043191301
20
-34.5
10
-11.043191301
20
-34.5
0
LWPOLYLINE
5
7D
100
AcDbEntity
8
cut
6
ByLayer
62
256
370
-1
100
AcDbPolyline
90
4
70
1
43
0
10
-20.3629964544
20
-57
10
-1.5
20
-57
10
-1.5
20
-46.5
10
-16.0137540495
20
-46.5
0
LWPOLYLINE
5
7E
100
AcDbEntity
8
cut
6
ByLayer
62
256
370
-1
100
AcDbPolyline
90
4
70
1
43
0
10
1.5
20
-57
10
20.3629964544
20
-57
10
16.0137540495
20
-46.5
10
1.5
20
-46.5
0
LWPOLYLINE
5
7F
100
AcDbEntity
8
cut
6
ByLayer
62
256
370
-1
100
AcDbPolyline
90
4
70
1
43
0
10
-39.2444263559
20
-41.3657466994
10
-31.8198051534
20
-33.941125497
10
-21.5570312445
20
-44.2038994058
10
-25.9062736495
20
-54.7038994058
0
LWPOLYLINE
5
80
100
AcDbEntity
8
cut
6
ByLayer
62
256
370
-1
100
AcDbPolyline
90
4
70
1
43
0
10
16.5864684961
20
-32.2038994058
10
32.2038994058
20
-16.5864684961
10
41.2038994058
20
-20.3143905574
10
20.3143905574
20
-41.2038994058
0
LWPOLYLINE
5
81
100
AcDbEntity
8
cut
6
ByLayer
62
256
370
-1
100
AcDbPolyline
90
4
70
1
43
0
10
43.5
20
14.7711133624
10
34.5
20
11.043191301
10
34.5
20
-11.043191301
10
43.5
20
-14.7711133624
0
LWPOLYLINE
5
82
100
AcDbEntity
8
cut
6
ByLayer
62
256
370
-1
100
AcDbPolyline
90
4
70
1
43
0
10
32.2038994058
20
16.5864684961
10
16.5864684961
20
32.2038994058
10
20.3143905574
20
41.2038994058
10
41.2038994058
20
20.3143905574
0
LWPOLYLINE
5
83
100
AcDbEntity
8
cut
6
ByLayer
62
256
370
-1
100
AcDbPolyline
90
4
70
1
43
0
10
54.7038994058
20
25.9062736495
10
41.3657466994
20
39.2444263559
10
33.941125497
20
31.8198051534
10
44.2038994058
20
21.5570312445
0
LWPOLYLINE
5
84
100
AcDbEntity
8
cut
6
ByLayer
62
256
370
-1
100
AcDbPolyline
90
4
70
1
43
0
10
31.8198051534
20
33.941125497
10
21.5570312445
20
44.2038994058
10
25.9062736495
20
54.7038994058
10
39.2444263559
20
41.3657466994
0
LWPOLYLINE
5
85
100
AcDbEntity
8
cut
6
ByLayer
62
256
370
-1
100
AcDbPolyline
90
4
70
1
43
0
10
13.7885822331
20
15.9099025767
10
10.994585404
20
18.7038994058
10
15.3438278089
20
29.2038994058
10
21.2132034356
20
23.3345237792
0
LWPOLYLINE
5
86
100
AcDbEntity
8
cut
6
ByLayer
62
256
370
-1
100
AcDbPolyline
90
4
70
1
43
0
10
29.2038994058
20
15.3438278089
10
23.3345237792
20
21.2132034356
10
15.9099025767
20
13.7885822331
10
18.7038994058
20
10.994585404
0
LWPOLYLINE
5
87
100
AcDbEntity
8
cut
6
ByLayer
62
256
370
-1
100
AcDbPolyline
90
4
70
1
43
0
10
31.5
20
1.5
10
21
20
1.5
10
21
20
5.45130820896
10
31.5
20
9.80055061388
0
LWPOLYLINE
5
88
100
AcDbEntity
8
cut
6
ByLayer
62
256
370
-1
100
AcDbPolyline
90
4
70
1
43
0
10
31.5
20
-9.80055061388
10
31.5
20
-1.5
10
21
20
-1.5
10
21
20
-5.45130820896
0
LWPOLYLINE
5
89
100
AcDbEntity
8
cut
6
ByLayer
62
256
370
-1
100
AcDbPolyline
90
4
70
1
43
0
10
23.3345237792
20
-21.2132034356
10
15.9099025767
20
-13.7885822331
10
18.7038994058
20
-10.994585404
10
29.2038994058
20
-15.3438278089
0
LWPOLYLINE
5
8A
100
AcDbEntity
8
cut
6
ByLayer
62
256
370
-1
100
AcDbPolyline
90
4
70
1
43
0
10
21.2132034356
20
-23.3345237792
10
13.7885822331
20
-15.9099025767
10
10.994585404
20
-18.7038994058
10
15.3438278089
20
-29.2038994058
0
LWPOLYLINE
5
8B
100
AcDbEntity
8
cut
6
ByLayer
62
256
370
-1
100
AcDbPolyline
90
4
70
1
43
0
10
25.9062736495
20
-54.7038994058
10
39.2444263559
20
-41.3657466994
10
31.8198051534
20
-33.941125497
10
21.5570312445
20
-44.2038994058
0
LWPOLYLINE
5
8C
100
AcDbEntity
8
cut
6
ByLayer
62
256
370
-1
100
AcDbPolyline
90
4
70
1
43
0
10
33.941125497
20
-31.8198051534
10
44.2038994058
20
-21.5570312445
10
54.7038994058
20
-25.9062736495
10
41.3657466994
20
-39.2444263559
0
LWPOLYLINE
5
8D
100
AcDbEntity
8
cut
6
ByLayer
62
256
370
-1
100
AcDbPolyline
90
4
70
1
43
0
10
46.5
20
-16.0137540495
10
46.5
20
-1.5
10
57
20
-1.5
10
57
20
-20.3629964544
0
LWPOLYLINE
5
8E
100
AcDbEntity
8
cut
6
ByLayer
62
256
370
-1
100
AcDbPolyline
90
4
70
1
43
0
10
46.5
20
1.5
10
46.5
20
16.0137540495
10
57
20
20.3629964544
10
57
20
1.5
0
LWPOLYLINE
5
8F
100
AcDbEntity
8
engrave
6
ByLayer
62
256
370
-1
100
AcDbPolyline
90
4
70
1
43
0
10
-17.5407798812
20
7.91506424155
10
-59.7703899406
20
25.4071414619
10
-60.2296100594
20
24.2984860229
10
-18
20
6.80640880254
0
LWPOLYLINE
5
90
100
AcDbEntity
8
engrave
6
ByLayer
62
256
370
-1
100
AcDbPolyline
90
4
70
1
43
0
10
-7.91506424155
20
17.5407798812
10
-25.4071414619
20
59.7703899406
10
-24.2984860229
20
60.2296100594
10
-6.80640880254
20
18
0
LWPOLYLINE
5
91
100
AcDbEntity
8
engrave
6
ByLayer
62
256
370
-1
100
AcDbPolyline
90
4
70
1
43
0
10
6.80640880254
20
18
10
24.2984860229
20
60.2296100594
10
25.4071414619
20
59.7703899406
10
7.91506424155
20
17.5407798812
0
LWPOLYLINE
5
92
100
AcDbEntity
8
engrave
6
ByLayer
62
256
370
-1
100
AcDbPolyline
90
4
70
1
43
0
10
17.5407798812
20
7.91506424155
10
59.7703899406
20
25.4071414619
10
60.2296100594
20
24.2984860229
10
18
20
6.80640880254
0
LWPOLYLINE
5
93
100
AcDbEntity
8
engrave
6
ByLayer
62
256
370
-1
100
AcDbPolyline
90
4
70
1
43
0
10
18
20
-6.80640880254
10
60.2296100594
20
-24.2984860229
10
59.7703899406
20
-25.4071414619
10
17.5407798812
20
-7.91506424155
0
LWPOLYLINE
5
94
100
AcDbEntity
8
engrave
6
ByLayer
62
256
370
-1
100
AcDbPolyline
90
4
70
1
43
0
10
6.80640880254
20
-18
10
24.2984860229
20
-60.2296100594
10
25.4071414619
20
-59.7703899406
10
7.91506424155
20
-17.5407798812
0
LWPOLYLINE
5
95
100
AcDbEntity
8
engrave
6
ByLayer
62
256
370
-1
100
AcDbPolyline
90
4
70
1
43
0
10
-7.91506424155
20
-17.5407798812
10
-25.4071414619
20
-59.7703899406
10
-24.2984860229
20
-60.2296100594
10
-6.80640880254
20
-18
0
LWPOLYLINE
5
96
100
AcDbEntity
8
engrave
6
ByLayer
62
256
370
-1
100
AcDbPolyline
90
4
70
1
43
0
10
-17.5407798812
20
-7.91506424155
10
-59.7703899406
20
-25.4071414619
10
-60.2296100594
20
-24.2984860229
10
-18
20
-6.80640880254
0
CIRCLE
5
97
100
AcDbEntity
8
engrave
6
ByLayer
62
256
370
-1
100
AcDbCircle
10
0
20
0
40
10.5
0
CIRCLE
5
98
100
AcDbEntity
8
engrave
6
ByLayer
62
256
370
-1
100
AcDbCircle
10
-2.77555756156e-17
20
4.8
40
1.3
0
CIRCLE
5
99
100
AcDbEntity
8
engrave
6
ByLayer
62
256
370
-1
100
AcDbCircle
10
-5.55111512313e-17
20
-4.8
40
1.3
0
LWPOLYLINE
5
9A
100
AcDbEntity
8
engrave
6
ByLayer
62
256
370
-1
100
AcDbPolyline
90
589
70
1
43
0
10
0.942827657151
20
0.102409944824
10
0.978545356336
20
0.109231346657
10
1.01357290017
20
0.116240519316
10
1.04790083467
20
0.123436305802
10
1.08151970588
20
0.130817549114
10
1.11442005982
20
0.138383092251
10
1.14659244252
20
0.146131778213
10
1.1780274
20
0.15406245
10
1.35963602776
20
0.204656762611
10
1.53797915755
20
0.261735579089
10
1.71293586238
20
0.325164080304
10
1.88438521525
20
0.394807447127
10
2.05220628915
20
0.470530860426
10
2.2162781571
20
0.552199501072
10
2.37647989209
20
0.639678549936
10
2.53269056713
20
0.732833187887
10
2.68478925522
20
0.831528595796
10
2.83265502935
20
0.935629954532
10
2.97616696254
20
1.04500244496
10
3.11520412778
20
1.15951124797
10
3.24964559807
20
1.2790215444
10
3.37937044642
20
1.40339851515
10
3.50425774583
20
1.53250734107
10
3.62418656931
20
1.66621320305
10
3.73903598984
20
1.80438128194
10
3.84868508044
20
1.94687675861
10
3.95301291411
20
2.09356481395
10
4.05189856384
20
2.24431062881
10
4.14522110265
20
2.39897938407
10
4.23285960352
20
2.5574362606
10
4.31469313948
20
2.71954643927
10
4.39060078351
20
2.88517510095
10
4.46046160861
20
3.0541874265
10
4.5241546878
20
3.22644859681
10
4.58155909407
20
3.40182379273
10
4.63255390042
20
3.58017819514
10
4.67701817986
20
3.76137698491
10
4.71483100538
20
3.9452853429
10
4.74587145
20
4.13176845
10
4.74977227752
20
4.16064123248
10
4.75341585081
20
4.19234362719
10
4.75680205433
20
4.22667960183
10
4.75993077257
20
4.26345312411
10
4.76280189001
20
4.30246816172
10
4.76541529111
20
4.34352868235
10
4.76777086035
20
4.38643865371
10
4.7698684822
20
4.4310020435
10
4.77170804115
20
4.47702281941
10
4.77328942167
20
4.52430494914
10
4.77461250823
20
4.5726524004
10
4.7756771853
20
4.62186914087
10
4.77648333737
20
4.67175913825
10
4.77703084891
20
4.72212636025
10
4.77731960438
20
4.77277477457
10
4.77734948828
20
4.8235083489
10
4.77712038507
20
4.87413105093
10
4.77663217923
20
4.92444684838
10
4.77588475523
20
4.97425970893
10
4.77487799755
20
5.02337360028
10
4.77361179066
20
5.07159249014
10
4.77208601904
20
5.1187203462
10
4.77030056717
20
5.16456113616
10
4.76825531952
20
5.20891882771
10
4.76595016056
20
5.25159738856
10
4.76338497477
20
5.29240078641
10
4.76055964662
20
5.33113298895
10
4.7574740606
20
5.36759796388
10
4.75412810117
20
5.4015996789
10
4.75052165281
20
5.43294210171
10
4.7466546
20
5.4614292
10
4.73069932367
20
5.56222681633
10
4.71278936254
20
5.66236288921
10
4.69293591837
20
5.76181493515
10
4.67115019292
20
5.86056047064
10
4.64744338798
20
5.95857701217
10
4.62182670531
20
6.05584207623
10
4.59431134667
20
6.15233317933
10
4.56490851384
20
6.24802783795
10
4.53362940858
20
6.3429035686
10
4.50048523267
20
6.43693788776
10
4.46548718788
20
6.53010831193
10
4.42864647596
20
6.62239235761
10
4.3899742987
20
6.71376754129
10
4.34948185786
20
6.80421137947
10
4.3071803552
20
6.89370138864
10
4.26308099251
20
6.98221508529
10
4.21719497154
20
7.06972998593
10
4.16953349407
20
7.15622360704
10
4.12010776186
20
7.24167346513
10
4.06892897669
20
7.32605707667
10
4.01600834032
20
7.40935195818
10
3.96135705453
20
7.49153562615
10
3.90498632107
20
7.57258559706
10
3.84690734173
20
7.65247938743
10
3.78713131826
20
7.73119451373
10
3.72566945245
20
7.80870849246
10
3.66253294605
20
7.88499884013
10
3.59773300083
20
7.96004307322
10
3.53128081857
20
8.03381870824
10
3.46318760104
20
8.10630326166
10
3.39346455
20
8.17747425
10
3.31978321427
20
8.24968602142
10
3.24509437908
20
8.32002269375
10
3.16939624108
20
8.3884851622
10
3.09268699697
20
8.45507432197
10
3.01496484341
20
8.51979106824
10
2.93622797709
20
8.58263629622
10
2.85647459468
20
8.6436109011
10
2.77570289286
20
8.70271577809
10
2.6939110683
20
8.75995182236
10
2.61109731768
20
8.81531992913
10
2.52725983768
20
8.86882099359
10
2.44239682498
20
8.92045591093
10
2.35650647625
20
8.97022557636
10
2.26958698817
20
9.01813088506
10
2.18163655742
20
9.06417273223
10
2.09265338067
20
9.10835201308
10
2.0026356546
20
9.1506696228
10
1.91158157588
20
9.19112645658
10
1.8194893412
20
9.22972340962
10
1.72635714723
20
9.26646137712
10
1.63218319064
20
9.30134125427
10
1.53696566812
20
9.33436393627
10
1.44070277634
20
9.36553031832
10
1.34339271198
20
9.39484129562
10
1.24503367171
20
9.42229776335
10
1.14562385222
20
9.44790061672
10
1.04516145017
20
9.47165075092
10
0.943644662249
20
9.49354906116
10
0.841071685128
20
9.51359644262
10
0.737440715486
20
9.5317937905
10
0.63274995
20
9.548142
10
0.594003739739
20
9.55333896345
10
0.551958988512
20
9.55807557501
10
0.506810007591
20
9.56235559715
10
0.458751108249
20
9.56618279235
10
0.407976601757
20
9.56956092307
10
0.354680799387
20
9.5724937518
10
0.299058012411
20
9.57498504099
10
0.241302552101
20
9.57703855313
10
0.181608729729
20
9.57865805069
10
0.120170856566
20
9.57984729613
10
0.0571832438841
20
9.58061005193
10
-0.00715979704441
20
9.58095008056
10
-0.0726639549478
20
9.58087114449
10
-0.139134918554
20
9.5803770062
10
-0.206378376592
20
9.57947142816
10
-0.274200017789
20
9.57815817283
10
-0.342405530873
20
9.57644100269
10
-0.410800604574
20
9.57432368022
10
-0.479190927617
20
9.57180996788
10
-0.547382188733
20
9.56890362814
10
-0.615180076649
20
9.56560842349
10
-0.682390280093
20
9.56192811638
10
-0.748818487793
20
9.55786646929
10
-0.814270388478
20
9.5534272447
10
-0.878551670875
20
9.54861420507
10
-0.941468023714
20
9.54343111288
10
-1.00282513572
20
9.5378817306
10
-1.06242869562
20
9.5319698207
10
-1.12008439215
20
9.52569914565
10
-1.17559791404
20
9.51907346793
10
-1.22877495
20
9.51209655
10
-1.44051410946
20
9.48079744225
10
-1.65038944944
20
9.44546241395
10
-1.85838408811
20
9.40609990101
10
-2.06448114364
20
9.3627183394
10
-2.26866373423
20
9.31532616504
10
-2.47091497805
20
9.26393181389
10
-2.67121799328
20
9.20854372187
10
-2.8695558981
20
9.14917032493
10
-3.06591181069
20
9.085820059
10
-3.26026884923
20
9.01850136004
10
-3.4526101319
20
8.94722266398
10
-3.64291877689
20
8.87199240676
10
-3.83117790236
20
8.79281902432
10
-4.01737062651
20
8.7097109526
10
-4.2014800675
20
8.62267662755
10
-4.38348934353
20
8.53172448509
10
-4.56338157277
20
8.43686296118
10
-4.74113987339
20
8.33810049175
10
-4.91674736359
20
8.23544551275
10
-5.09018716154
20
8.12890646011
10
-5.26144238542
20
8.01849176977
10
-5.43049615341
20
7.90420987768
10
-5.59733158369
20
7.78606921977
10
-5.76193179444
20
7.66407823198
10
-5.92427990385
20
7.53824535027
10
-6.08435903008
20
7.40857901056
10
-6.24215229132
20
7.27508764879
10
-6.39764280576
20
7.13777970091
10
-6.55081369156
20
6.99666360286
10
-6.70164806691
20
6.85174779058
10
-6.85012905
20
6.7030407
10
-6.97548228276
20
6.57250650108
10
-7.09805041065
20
6.44008233114
10
-7.21782388289
20
6.3057863465
10
-7.33479314872
20
6.16963670352
10
-7.44894865737
20
6.03165155852
10
-7.56028085808
20
5.89184906786
10
-7.66878020007
20
5.75024738786
10
-7.77443713259
20
5.60686467486
10
-7.87724210486
20
5.46171908522
10
-7.97718556611
20
5.31482877526
10
-8.07425796559
20
5.16621190132
10
-8.16844975251
20
5.01588661975
10
-8.25975137613
20
4.86387108688
10
-8.34815328566
20
4.71018345905
10
-8.43364593034
20
4.5548418926
10
-8.51621975941
20
4.39786454387
10
-8.59586522209
20
4.2392695692
10
-8.67257276763
20
4.07907512493
10
-8.74633284525
20
3.9172993674
10
-8.81713590418
20
3.75396045295
10
-8.88497239367
20
3.58907653791
10
-8.94983276294
20
3.42266577862
10
-9.01170746122
20
3.25474633143
10
-9.07058693775
20
3.08533635267
10
-9.12646164176
20
2.91445399869
10
-9.17932202249
20
2.74211742582
10
-9.22915852917
20
2.56834479039
10
-9.27596161102
20
2.39315424876
10
-9.31972171729
20
2.21656395726
10
-9.36042929721
20
2.03859207223
10
-9.3980748
20
1.85925675
10
-9.41044097635
20
1.79703204238
10
-9.42217112317
20
1.73674651061
10
-9.4332808381
20
1.6782172429
10
-9.44378571877
20
1.62126132748
10
-9.45370136282
20
1.56569585258
10
-9.46304336788
20
1.51133790642
10
-9.47182733157
20
1.45800457722
10
-9.48006885155
20
1.40551295322
10
-9.48778352543
20
1.35368012262
10
-9.49498695085
20
1.30232317367
10
-9.50169472545
20
1.25125919458
10
-9.50792244686
20
1.20030527357
10
-9.51368571271
20
1.14927849888
10
-9.51900012064
20
1.09799595873
10
-9.52388126828
20
1.04627474134
10
-9.52834475326
20
0.993931934935
10
-9.53240617322
20
0.940784627742
10
-9.53608112579
20
0.886649907984
10
-9.5393852086
20
0.831344863887
10
-9.54233401929
20
0.774686583675
10
-9.5449431555
20
0.716492155572
10
-9.54722821484
20
0.656578667804
10
-9.54920479497
20
0.594763208595
10
-9.5508884935
20
0.530862866169
10
-9.55229490809
20
0.464694728752
10
-9.55343963635
20
0.396075884567
10
-9.55433827592
20
0.32482342184
10
-9.55500642444
20
0.250754428796
10
-9.55545967953
20
0.173685993657
10
-9.55571363884
20
0.0934352046507
10
-9.5557839
20
0.00981915
10
-9.55572690863
20
-0.0721912052684
10
-9.55557486869
20
-0.149998105779
10
-9.55530827825
20
-0.223850956814
10
-9.55490763536
20
-0.293999163658
10
-9.55435343807
20
-0.360692131595
10
-9.55362618446
20
-0.424179265907
10
-9.55270637256
20
-0.484709971879
10
-9.55157450044
20
-0.542533654793
10
-9.55021106615
20
-0.597899719934
10
-9.54859656775
20
-0.651057572584
10
-9.5467115033
20
-0.702256618027
10
-9.54453637085
20
-0.751746261547
10
-9.54205166847
20
-0.799775908427
10
-9.53923789419
20
-0.846594963951
10
-9.53607554609
20
-0.892452833401
10
-9.53254512222
20
-0.937598922062
10
-9.52862712064
20
-0.982282635217
10
-9.52430203939
20
-1.02675337815
10
-9.51955037654
20
-1.07126055614
10
-9.51435263015
20
-1.11605357448
10
-9.50868929827
20
-1.16138183845
10
-9.50254087896
20
-1.20749475332
10
-9.49588787027
20
-1.25464172439
10
-9.48871077026
20
-1.30307215695
10
-9.48099007699
20
-1.35303545626
10
-9.47270628851
20
-1.40478102761
10
-9.46383990289
20
-1.4585582763
10
-9.45437141816
20
-1.5146166076
10
-9.4442813324
20
-1.57320542679
10
-9.43355014366
20
-1.63457413916
10
-9.42215835
20
-1.69897215
10
-9.38346887219
20
-1.90313254458
10
-9.34015640358
20
-2.10634299395
10
-9.29226761884
20
-2.30852144977
10
-9.23984919261
20
-2.50958586372
10
-9.18294779956
20
-2.70945418745
10
-9.12161011433
20
-2.90804437264
10
-9.0558828116
20
-3.10527437095
10
-8.98581256601
20
-3.30106213405
10
-8.91144605222
20
-3.4953256136
10
-8.83282994489
20
-3.68798276128
10
-8.75001091868
20
-3.87895152874
10
-8.66303564824
20
-4.06814986765
10
-8.57195080822
20
-4.25549572969
10
-8.4768030733
20
-4.44090706652
10
-8.37763911811
20
-4.62430182979
10
-8.27450561732
20
-4.80559797119
10
-8.16744924559
20
-4.98471344238
10
-8.05651667757
20
-5.16156619502
10
-7.94175458792
20
-5.33607418079
10
-7.8232096513
20
-5.50815535134
10
-7.70092854236
20
-5.67772765834
10
-7.57495793576
20
-5.84470905346
10
-7.44534450615
20
-6.00901748838
10
-7.3121349282
20
-6.17057091474
10
-7.17537587656
20
-6.32928728423
10
-7.03511402589
20
-6.4850845485
10
-6.89139605083
20
-6.63788065923
10
-6.74426862606
20
-6.78759356807
10
-6.59377842623
20
-6.93414122671
10
-6.43997212599
20
-7.07744158679
10
-6.2828964
20
-7.2174126
10
-6.14086709204
20
-7.33865930628
10
-5.99641930427
20
-7.45701070464
10
-5.84961801181
20
-7.57243843858
10
-5.7005281898
20
-7.68491415158
10
-5.54921481337
20
-7.79440948713
10
-5.39574285765
20
-7.90089608873
10
-5.24017729776
20
-8.00434559986
10
-5.08258310884
20
-8.10472966401
10
-4.92302526602
20
-8.20201992468
10
-4.76156874443
20
-8.29618802535
10
-4.5982785192
20
-8.38720560951
10
-4.43321956545
20
-8.47504432065
10
-4.26645685832
20
-8.55967580226
10
-4.09805537294
20
-8.64107169783
10
-3.92808008444
20
-8.71920365085
10
-3.75659596795
20
-8.79404330482
10
-3.5836679986
20
-8.86556230321
10
-3.40936115151
20
-8.93373228952
10
-3.23374040182
20
-8.99852490724
10
-3.05687072466
20
-9.05991179986
10
-2.87881709516
20
-9.11786461087
10
-2.69964448845
20
-9.17235498375
10
-2.51941787966
20
-9.223354562
10
-2.33820224391
20
-9.27083498911
10
-2.15606255635
20
-9.31476790857
10
-1.97306379209
20
-9.35512496386
10
-1.78927092627
20
-9.39187779848
10
-1.60474893403
20
-9.42499805591
10
-1.41956279048
20
-9.45445737965
10
-1.23377747076
20
-9.48022741318
10
-1.04745795
20
-9.5022798
10
-1.00480935757
20
-9.50688472196
10
-0.964480149916
20
-9.51121685213
10
-0.926344344371
20
-9.51528441602
10
-0.890275958278
20
-9.51909563913
10
-0.856149008978
20
-9.52265874693
10
-0.823837513811
20
-9.52598196493
10
-0.793215490119
20
-9.52907351863
10
-0.764156955243
20
-9.53194163351
10
-0.736535926523
20
-9.53459453507
10
-0.7102264213
20
-9.5370404488
10
-0.685102456915
20
-9.53928760021
10
-0.661038050708
20
-9.54134421478
10
-0.637907220021
20
-9.543218518
10
-0.615583982194
20
-9.54491873538
10
-0.593942354568
20
-9.5464530924
10
-0.572856354485
20
-9.54782981457
10
-0.552199999283
20
-9.54905712737
10
-0.531847306306
20
-9.5501432563
10
-0.511672292892
20
-9.55109642685
10
-0.491548976384
20
-9.55192486452
10
-0.471351374121
20
-9.5526367948
10
-0.450953503446
20
-9.55324044318
10
-0.430229381697
20
-9.55374403517
10
-0.409053026218
20
-9.55415579625
10
-0.387298454347
20
-9.55448395193
10
-0.364839683426
20
-9.55473672768
10
-0.341550730796
20
-9.55492234901
10
-0.317305613798
20
-9.55504904142
10
-0.291978349772
20
-9.55512503039
10
-0.265442956059
20
-9.55515854142
10
-0.23757345
20
-9.5551578
10
-0.224312988183
20
-9.5551386061
10
-0.211560003016
20
-9.55509777573
10
-0.199323867509
20
-9.55503587462
10
-0.187613954669
20
-9.55495346849
10
-0.176439637506
20
-9.55485112306
10
-0.165810289029
20
-9.55472940405
10
-0.155735282245
20
-9.55458887718
10
-0.146223990163
20
-9.55443010817
10
-0.137285785793
20
-9.55425366275
10
-0.128930042142
20
-9.55406010664
10
-0.121166132219
20
-9.55385000555
10
-0.114003429034
20
-9.55362392521
10
-0.107451305594
20
-9.55338243133
10
-0.101519134908
20
-9.55312608965
10
-0.0962162899852
20
-9.55285546588
10
-0.0915521438337
20
-9.55257112574
10
-0.0875360694623
20
-9.55227363496
10
-0.0841774398795
20
-9.55196355925
10
-0.0814856280941
20
-9.55164146434
10
-0.0794700071146
20
-9.55130791594
10
-0.0781399499496
20
-9.55096347978
10
-0.0775048296079
20
-9.55060872159
10
-0.077574019098
20
-9.55024420707
10
-0.0783568914286
20
-9.54987050196
10
-0.0798628196083
20
-9.54948817197
10
-0.0821011766456
20
-9.54909778282
10
-0.0850813355493
20
-9.54869990024
10
-0.088812669328
20
-9.54829508995
10
-0.0933045509902
20
-9.54788391766
10
-0.0985663535447
20
-9.54746694911
10
-0.10460745
20
-9.54704475
10
-0.234268111307
20
-9.53729291296
10
-0.361986547117
20
-9.52527598169
10
-0.487795864293
20
-9.51097955497
10
-0.611729169701
20
-9.4943892316
10
-0.733819570204
20
-9.47549061036
10
-0.854100172668
20
-9.45426929006
10
-0.972604083957
20
-9.43071086947
10
-1.08936441093
20
-9.4048009474
10
-1.20441426047
20
-9.37652512264
10
-1.31778673942
20
-9.34586899397
10
-1.42951495465
20
-9.31281816018
10
-1.53963201303
20
-9.27735822008
10
-1.64817102142
20
-9.23947477245
10
-1.75516508669
20
-9.19915341608
10
-1.8606473157
20
-9.15637974977
10
-1.96465081531
20
-9.1111393723
10
-2.0672086924
20
-9.06341788246
10
-2.16835405381
20
-9.01320087906
10
-2.26812000643
20
-8.96047396088
10
-2.36653965711
20
-8.9052227267
10
-2.46364611272
20
-8.84743277534
10
-2.55947248012
20
-8.78708970556
10
-2.65405186617
20
-8.72417911618
10
-2.74741737775
20
-8.65868660597
10
-2.83960212171
20
-8.59059777373
10
-2.93063920493
20
-8.51989821826
10
-3.02056173425
20
-8.44657353833
10
-3.10940281656
20
-8.37060933275
10
-3.19719555871
20
-8.29199120031
10
-3.28397306757
20
-8.2107047398
10
-3.36976845
20
-8.12673555
10
-3.44052471233
20
-8.05457468868
10
-3.5095005605
20
-7.98138684042
10
-3.57669322175
20
-7.90717751681
10
-3.64209992336
20
-7.83195222945
10
-3.70571789256
20
-7.75571648993
10
-3.76754435661
20
-7.67847580986
10
-3.82757654276
20
-7.60023570083
10
-3.88581167828
20
-7.52100167444
10
-3.9422469904
20
-7.44077924229
10
-3.99687970639
20
-7.35957391597
10
-4.04970705349
20
-7.27739120708
10
-4.10072625896
20
-7.19423662722
10
-4.14993455006
20
-7.11011568798
10
-4.19732915403
20
-7.02503390098
10
-4.24290729813
20
-6.93899677779
10
-4.28666620962
20
-6.85200983002
10
-4.32860311574
20
-6.76407856926
10
-4.36871524375
20
-6.67520850712
10
-4.4069998209
20
-6.5854051552
10
-4.44345407445
20
-6.49467402508
10
-4.47807523165
20
-6.40302062836
10
-4.51086051975
20
-6.31045047665
10
-4.541807166
20
-6.21696908154
10
-4.57091239766
20
-6.12258195463
10
-4.59817344199
20
-6.02729460752
10
-4.62358752622
20
-5.9311125518
10
-4.64715187763
20
-5.83404129907
10
-4.66886372346
20
-5.73608636092
10
-4.68872029096
20
-5.63725324897
10
-4.70671880739
20
-5.53754747479
10
-4.7228565
20
-5.43697455
10
-4.72762653945
20
-5.40327303551
10
-4.73208474973
20
-5.36769370382
10
-4.73623093486
20
-5.33036761451
10
-4.74006489888
20
-5.29142582716
10
-4.7435864458
20
-5.25099940138
10
-4.74679537964
20
-5.20921939675
10
-4.74969150445
20
-5.16621687285
10
-4.75227462423
20
-5.12212288927
10
-4.75454454301
20
-5.07706850561
10
-4.75650106482
20
-5.03118478145
10
-4.75814399368
20
-4.98460277637
10
-4.75947313362
20
-4.93745354998
10
-4.76048828866
20
-4.88986816185
10
-4.76118926283
20
-4.84197767158
10
-4.76157586015
20
-4.79391313875
10
-4.76164788465
20
-4.74580562295
10
-4.76140514034
20
-4.69778618378
10
-4.76084743126
20
-4.64998588081
10
-4.75997456144
20
-4.60253577364
10
-4.75878633488
20
-4.55556692186
10
-4.75728255563
20
-4.50921038505
10
-4.7554630277
20
-4.4635972228
10
-4.75332755512
20
-4.4188584947
10
-4.75087594191
20
-4.37512526035
10
-4.7481079921
20
-4.33252857932
10
-4.74502350972
20
-4.29119951121
10
-4.74162229878
20
-4.2512691156
10
-4.73790416331
20
-4.21286845209
10
-4.73386890735
20
-4.17612858026
10
-4.7295163349
20
-4.1411805597
10
-4.72484625
20
-4.10815545
10
-4.6962019352
20
-3.93808895003
10
-4.66192579328
20
-3.77010131381
10
-4.62210495864
20
-3.60429951914
10
-4.57682656566
20
-3.44079054381
10
-4.52617774872
20
-3.27968136564
10
-4.47024564222
20
-3.12107896241
10
-4.40911738054
20
-2.96509031192
10
-4.34288009806
20
-2.81182239198
10
-4.27162092917
20
-2.66138218037
10
-4.19542700827
20
-2.51387665491
10
-4.11438546972
20
-2.36941279339
10
-4.02858344793
20
-2.2280975736
10
-3.93810807727
20
-2.09003797335
10
-3.84304649213
20
-1.95534097044
10
-3.7434858269
20
-1.82411354265
10
-3.63951321597
20
-1.6964626678
10
-3.53121579372
20
-1.57249532369
10
-3.41868069453
20
-1.4523184881
10
-3.3019950528
20
-1.33603913883
10
-3.18124600291
20
-1.2237642537
10
-3.05652067925
20
-1.11560081049
10
-2.92790621619
20
-1.011655787
10
-2.79548974814
20
-0.912036161042
10
-2.65935840947
20
-0.816848910401
10
-2.51959933457
20
-0.72620101288
10
-2.37629965783
20
-0.640199446277
10
-2.22954651363
20
-0.558951188392
10
-2.07942703637
20
-0.482563217024
10
-1.92602836041
20
-0.411142509969
10
-1.76943762016
20
-0.344796045029
10
-1.60974195
20
-0.2836308
10
-1.5637145408
20
-0.26717903178
10
-1.51769482955
20
-0.251254191491
10
-1.47166288114
20
-0.235852567626
10
-1.42559876042
20
-0.220970448679
10
-1.37948253226
20
-0.206604123143
10
-1.33329426154
20
-0.192749879511
10
-1.28701401312
20
-0.179404006275
10
-1.24062185188
20
-0.16656279193
10
-1.19409784267
20
-0.154222524969
10
-1.14742205037
20
-0.142379493884
10
-1.10057453984
20
-0.131029987169
10
-1.05353537596
20
-0.120170293317
10
-1.00628462359
20
-0.109796700821
10
-0.95880234761
20
-0.0999054981739
10
-0.911068612876
20
-0.0904929738696
10
-0.863063484262
20
-0.0815554164009
10
-0.814767026636
20
-0.073089114261
10
-0.766159304866
20
-0.0650903559431
10
-0.717220383821
20
-0.0575554299403
10
-0.667930328369
20
-0.0504806247457
10
-0.61826920338
20
-0.0438622288527
10
-0.568217073722
20
-0.0376965307543
10
-0.517754004263
20
-0.0319798189436
10
-0.466860059872
20
-0.026708381914
10
-0.415515305418
20
-0.0218785081585
10
-0.363699805769
20
-0.0174864861703
10
-0.311393625793
20
-0.0135286044426
10
-0.25857683036
20
-0.0100011514686
10
-0.205229484338
20
-0.00690041574133
10
-0.151331652595
20
-0.00422268575409
10
-0.0968634
20
-0.00196425
10
-0.0474181641637
20
3.55185962112e-06
10
0.0015638116646
20
0.00218689255648
10
0.0500730735121
20
0.00458461509013
10
0.0981001674063
20
0.00719556246014
10
0.145635639374
20
0.0100185776661
10
0.192670035444
20
0.0130525037075
10
0.239193901641
20
0.016296183584
10
0.285197783995
20
0.0197484602951
10
0.330672228532
20
0.0234081768403
10
0.37560778128
20
0.0272741762193
10
0.419994988265
20
0.0313453014316
10
0.463824395515
20
0.0356203954768
10
0.507086549058
20
0.0400983013544
10
0.549771994921
20
0.044777862064
10
0.591871279131
20
0.0496579206052
10
0.633374947716
20
0.0547373199775
10
0.674273546702
20
0.0600149031805
10
0.714557622117
20
0.0654895132137
10
0.754217719989
20
0.0711599930768
10
0.793244386345
20
0.0770251857692
10
0.831628167212
20
0.0830839342906
10
0.869359608617
20
0.0893350816404
10
0.906429256588
20
0.0957774708184
0
INSERT
5
9B
100
AcDbEntity
8
cut_brackerts
6
ByLayer
62
256
370
-1
100
AcDbBlockReference
2
3x10_Female-0
10
-15
20
75
30
0
41
1
42
1
43
0
50
90
70
1
71
1
44
0
45
0
0
INSERT
5
9C
100
AcDbEntity
8
cut_brackerts
6
ByLayer
62
256
370
-1
100
AcDbBlockReference
2
3x10_Female-1
10
15
20
75
30
0
41
1
42
1
43
0
50
90
70
1
71
1
44
0
45
0
0
CIRCLE
5
9D
100
AcDbEntity
8
cut_brackerts
6
ByLayer
62
256
370
-1
100
AcDbCircle
10
0
20
75
40
1.6
0
LINE
5
9E
100
AcDbEntity
8
guide_brackets
6
ByLayer
62
256
370
-1
100
AcDbLine
10
-30
20
75
11
30
21
75
0
LINE
5
9F
100
AcDbEntity
8
guide_brackets
6
ByLayer
62
256
370
-1
100
AcDbLine
10
-30
20
73.5
11
30
21
73.5
0
LINE
5
A0
100
AcDbEntity
8
guide_brackets
6
ByLayer
62
256
370
-1
100
AcDbLine
10
-30
20
76.5
11
30
21
76.5
0
LINE
5
A1
100
AcDbEntity
8
guide_brackets
6
ByLayer
62
256
370
-1
100
AcDbLine
10
30
20
76.5
11
30
21
73.5
0
LINE
5
A2
100
AcDbEntity
8
guide_brackets
6
ByLayer
62
256
370
-1
100
AcDbLine
10
-30
20
76.5
11
-30
21
73.5
0
INSERT
5
A3
100
AcDbEntity
8
cut_brackerts
6
ByLayer
62
256
370
-1
100
AcDbBlockReference
2
3x10_Female-0
10
-63.6396103068
20
42.4264068712
30
0
41
1
42
1
43
0
50
135
70
1
71
1
44
0
45
0
0
INSERT
5
A4
100
AcDbEntity
8
cut_brackerts
6
ByLayer
62
256
370
-1
100
AcDbBlockReference
2
3x10_Female-1
10
-42.4264068712
20
63.6396103068
30
0
41
1
42
1
43
0
50
135
70
1
71
1
44
0
45
0
0
CIRCLE
5
A5
100
AcDbEntity
8
cut_brackerts
6
ByLayer
62
256
370
-1
100
AcDbCircle
10
-53.033008589
20
53.033008589
40
1.6
0
LINE
5
A6
100
AcDbEntity
8
guide_brackets
6
ByLayer
62
256
370
-1
100
AcDbLine
10
-74.2462120246
20
31.8198051534
11
-31.8198051534
21
74.2462120246
0
LINE
5
A7
100
AcDbEntity
8
guide_brackets
6
ByLayer
62
256
370
-1
100
AcDbLine
10
-73.1855518528
20
30.7591449816
11
-30.7591449816
21
73.1855518528
0
LINE
5
A8
100
AcDbEntity
8
guide_brackets
6
ByLayer
62
256
370
-1
100
AcDbLine
10
-75.3068721964
20
32.8804653252
11
-32.8804653252
21
75.3068721964
0
LINE
5
A9
100
AcDbEntity
8
guide_brackets
6
ByLayer
62
256
370
-1
100
AcDbLine
10
-32.8804653252
20
75.3068721964
11
-30.7591449816
21
73.1855518528
0
LINE
5
AA
100
AcDbEntity
8
guide_brackets
6
ByLayer
62
256
370
-1
100
AcDbLine
10
-75.3068721964
20
32.8804653252
11
-73.1855518528
21
30.7591449816
0
INSERT
5
AB
100
AcDbEntity
8
cut_brackerts
6
ByLayer
62
256
370
-1
100
AcDbBlockReference
2
3x10_Female-0
10
-75
20
-15
30
0
41
1
42
1
43
0
50
180
70
1
71
1
44
0
45
0
0
INSERT
5
AC
100
AcDbEntity
8
cut_brackerts
6
ByLayer
62
256
370
-1
100
AcDbBlockReference
2
3x10_Female-1
10
-75
20
15
30
0
41
1
42
1
43
0
50
180
70
1
71
1
44
0
45
0
0
CIRCLE
5
AD
100
AcDbEntity
8
cut_brackerts
6
ByLayer
62
256
370
-1
100
AcDbCircle
10
-75
20
4.5924254968e-15
40
1.6
0
LINE
5
AE
100
AcDbEntity
8
guide_brackets
6
ByLayer
62
256
370
-1
100
AcDbLine
10
-75
20
-30
11
-75
21
30
0
LINE
5
AF
100
AcDbEntity
8
guide_brackets
6
ByLayer
62
256
370
-1
100
AcDbLine
10
-73.5
20
-30
11
-73.5
21
30
0
LINE
5
B0
100
AcDbEntity
8
guide_brackets
6
ByLayer
62
256
370
-1
100
AcDbLine
10
-76.5
20
-30
11
-76.5
21
30
0
LINE
5
B1
100
AcDbEntity
8
guide_brackets
6
ByLayer
62
256
370
-1
100
AcDbLine
10
-76.5
20
30
11
-73.5
21
30
0
LINE
5
B2
100
AcDbEntity
8
guide_brackets
6
ByLayer
62
256
370
-1
100
AcDbLine
10
-76.5
20
-30
11
-73.5
21
-30
0
INSERT
5
B3
100
AcDbEntity
8
cut_brackerts
6
ByLayer
62
256
370
-1
100
AcDbBlockReference
2
3x10_Female-0
10
-42.4264068712
20
-63.6396103068
30
0
41
1
42
1
43
0
50
225
70
1
71
1
44
0
45
0
0
INSERT
5
B4
100
AcDbEntity
8
cut_brackerts
6
ByLayer
62
256
370
-1
100
AcDbBlockReference
2
3x10_Female-1
10
-63.6396103068
20
-42.4264068712
30
0
41
1
42
1
43
0
50
225
70
1
71
1
44
0
45
0
0
CIRCLE
5
B5
100
AcDbEntity
8
cut_brackerts
6
ByLayer
62
256
370
-1
100
AcDbCircle
10
-53.033008589
20
-53.033008589
40
1.6
0
LINE
5
B6
100
AcDbEntity
8
guide_brackets
6
ByLayer
62
256
370
-1
100
AcDbLine
10
-31.8198051534
20
-74.2462120246
11
-74.2462120246
21
-31.8198051534
0
LINE
5
B7
100
AcDbEntity
8
guide_brackets
6
ByLayer
62
256
370
-1
100
AcDbLine
10
-30.7591449816
20
-73.1855518528
11
-73.1855518528
21
-30.7591449816
0
LINE
5
B8
100
AcDbEntity
8
guide_brackets
6
ByLayer
62
256
370
-1
100
AcDbLine
10
-32.8804653252
20
-75.3068721964
11
-75.3068721964
21
-32.8804653252
0
LINE
5
B9
100
AcDbEntity
8
guide_brackets
6
ByLayer
62
256
370
-1
100
AcDbLine
10
-75.3068721964
20
-32.8804653252
11
-73.1855518528
21
-30.7591449816
0
LINE
5
BA
100
AcDbEntity
8
guide_brackets
6
ByLayer
62
256
370
-1
100
AcDbLine
10
-32.8804653252
20
-75.3068721964
11
-30.7591449816
21
-73.1855518528
0
INSERT
5
BB
100
AcDbEntity
8
cut_brackerts
6
ByLayer
62
256
370
-1
100
AcDbBlockReference
2
3x10_Female-0
10
15
20
-75
30
0
41
1
42
1
43
0
50
270
70
1
71
1
44
0
45
0
0
INSERT
5
BC
100
AcDbEntity
8
cut_brackerts
6
ByLayer
62
256
370
-1
100
AcDbBlockReference
2
3x10_Female-1
10
-15
20
-75
30
0
41
1
42
1
43
0
50
270
70
1
71
1
44
0
45
0
0
CIRCLE
5
BD
100
AcDbEntity
8
cut_brackerts
6
ByLayer
62
256
370
-1
100
AcDbCircle
10
-9.18485099361e-15
20
-75
40
1.6
0
LINE
5
BE
100
AcDbEntity
8
guide_brackets
6
ByLayer
62
256
370
-1
100
AcDbLine
10
30
20
-75
11
-30
21
-75
0
LINE
5
BF
100
AcDbEntity
8
guide_brackets
6
ByLayer
62
256
370
-1
100
AcDbLine
10
30
20
-73.5
11
-30
21
-73.5
0
LINE
5
C0
100
AcDbEntity
8
guide_brackets
6
ByLayer
62
256
370
-1
100
AcDbLine
10
30
20
-76.5
11
-30
21
-76.5
0
LINE
5
C1
100
AcDbEntity
8
guide_brackets
6
ByLayer
62
256
370
-1
100
AcDbLine
10
-30
20
-76.5
11
-30
21
-73.5
0
LINE
5
C2
100
AcDbEntity
8
guide_brackets
6
ByLayer
62
256
370
-1
100
AcDbLine
10
30
20
-76.5
11
30
21
-73.5
0
INSERT
5
C3
100
AcDbEntity
8
cut_brackerts
6
ByLayer
62
256
370
-1
100
AcDbBlockReference
2
3x10_Female-0
10
63.6396103068
20
-42.4264068712
30
0
41
1
42
1
43
0
50
315
70
1
71
1
44
0
45
0
0
INSERT
5
C4
100
AcDbEntity
8
cut_brackerts
6
ByLayer
62
256
370
-1
100
AcDbBlockReference
2
3x10_Female-1
10
42.4264068712
20
-63.6396103068
30
0
41
1
42
1
43
0
50
315
70
1
71
1
44
0
45
0
0
CIRCLE
5
C5
100
AcDbEntity
8
cut_brackerts
6
ByLayer
62
256
370
-1
100
AcDbCircle
10
53.033008589
20
-53.033008589
40
1.6
0
LINE
5
C6
100
AcDbEntity
8
guide_brackets
6
ByLayer
62
256
370
-1
100
AcDbLine
10
74.2462120246
20
-31.8198051534
11
31.8198051534
21
-74.2462120246
0
LINE
5
C7
100
AcDbEntity
8
guide_brackets
6
ByLayer
62
256
370
-1
100
AcDbLine
10
73.1855518528
20
-30.7591449816
11
30.7591449816
21
-73.1855518528
0
LINE
5
C8
100
AcDbEntity
8
guide_brackets
6
ByLayer
62
256
370
-1
100
AcDbLine
10
75.3068721964
20
-32.8804653252
11
32.8804653252
21
-75.3068721964
0
LINE
5
C9
100
AcDbEntity
8
guide_brackets
6
ByLayer
62
256
370
-1
100
AcDbLine
10
32.8804653252
20
-75.3068721964
11
30.7591449816
21
-73.1855518528
0
LINE
5
CA
100
AcDbEntity
8
guide_brackets
6
ByLayer
62
256
370
-1
100
AcDbLine
10
75.3068721964
20
-32.8804653252
11
73.1855518528
21
-30.7591449816
0
INSERT
5
CB
100
AcDbEntity
8
cut_brackerts
6
ByLayer
62
256
370
-1
100
AcDbBlockReference
2
3x10_Female-0
10
75
20
15
30
0
41
1
42
1
43
0
50
360
70
1
71
1
44
0
45
0
0
INSERT
5
CC
100
AcDbEntity
8
cut_brackerts
6
ByLayer
62
256
370
-1
100
AcDbBlockReference
2
3x10_Female-1
10
75
20
-15
30
0
41
1
42
1
43
0
50
360
70
1
71
1
44
0
45
0
0
CIRCLE
5
CD
100
AcDbEntity
8
cut_brackerts
6
ByLayer
62
256
370
-1
100
AcDbCircle
10
75
20
-1.37772764904e-14
40
1.6
0
LINE
5
CE
100
AcDbEntity
8
guide_brackets
6
ByLayer
62
256
370
-1
100
AcDbLine
10
75
20
30
11
75
21
-30
0
LINE
5
CF
100
AcDbEntity
8
guide_brackets
6
ByLayer
62
256
370
-1
100
AcDbLine
10
73.5
20
30
11
73.5
21
-30
0
LINE
5
D0
100
AcDbEntity
8
guide_brackets
6
ByLayer
62
256
370
-1
100
AcDbLine
10
76.5
20
30
11
76.5
21
-30
0
LINE
5
D1
100
AcDbEntity
8
guide_brackets
6
ByLayer
62
256
370
-1
100
AcDbLine
10
76.5
20
-30
11
73.5
21
-30
0
LINE
5
D2
100
AcDbEntity
8
guide_brackets
6
ByLayer
62
256
370
-1
100
AcDbLine
10
76.5
20
30
11
73.5
21
30
0
INSERT
5
D3
100
AcDbEntity
8
cut_brackerts
6
ByLayer
62
256
370
-1
100
AcDbBlockReference
2
3x10_Female-0
10
42.4264068712
20
63.6396103068
30
0
41
1
42
1
43
0
50
45
70
1
71
1
44
0
45
0
0
INSERT
5
D4
100
AcDbEntity
8
cut_brackerts
6
ByLayer
62
256
370
-1
100
AcDbBlockReference
2
3x10_Female-1
10
63.6396103068
20
42.4264068712
30
0
41
1
42
1
43
0
50
45
70
1
71
1
44
0
45
0
0
CIRCLE
5
D5
100
AcDbEntity
8
cut_brackerts
6
ByLayer
62
256
370
-1
100
AcDbCircle
10
53.033008589
20
53.033008589
40
1.6
0
LINE
5
D6
100
AcDbEntity
8
guide_brackets
6
ByLayer
62
256
370
-1
100
AcDbLine
10
31.8198051534
20
74.2462120246
11
74.2462120246
21
31.8198051534
0
LINE
5
D7
100
AcDbEntity
8
guide_brackets
6
ByLayer
62
256
370
-1
100
AcDbLine
10
30.7591449816
20
73.1855518528
11
73.1855518528
21
30.7591449816
0
LINE
5
D8
100
AcDbEntity
8
guide_brackets
6
ByLayer
62
256
370
-1
100
AcDbLine
10
32.8804653252
20
75.3068721964
11
75.3068721964
21
32.8804653252
0
LINE
5
D9
100
AcDbEntity
8
guide_brackets
6
ByLayer
62
256
370
-1
100
AcDbLine
10
75.3068721964
20
32.8804653252
11
73.1855518528
21
30.7591449816
0
LINE
5
DA
100
AcDbEntity
8
guide_brackets
6
ByLayer
62
256
370
-1
100
AcDbLine
10
32.8804653252
20
75.3068721964
11
30.7591449816
21
73.1855518528
0
INSERT
5
DB
100
AcDbEntity
8
0
6
ByLayer
62
256
370
-1
100
AcDbBlockReference
2
24NeoPixelRing-0
10
0
20
0
30
0
41
1
42
1
43
0
50
270
70
1
71
1
44
0
45
0
0
ENDSEC
0
SECTION
2
OBJECTS
0
DICTIONARY
5
C
330
0
100
AcDbDictionary
281
1
3
ACAD_GROUP
350
D
0
DICTIONARY
5
D
330
C
100
AcDbDictionary
281
1
0
ENDSEC
0
EOF
