<?xml version="1.0" encoding="UTF-8" standalone="no"?>
<svg
   xmlns:dc="http://purl.org/dc/elements/1.1/"
   xmlns:cc="http://creativecommons.org/ns#"
   xmlns:rdf="http://www.w3.org/1999/02/22-rdf-syntax-ns#"
   xmlns:svg="http://www.w3.org/2000/svg"
   xmlns="http://www.w3.org/2000/svg"
   xmlns:sodipodi="http://sodipodi.sourceforge.net/DTD/sodipodi-0.dtd"
   xmlns:inkscape="http://www.inkscape.org/namespaces/inkscape"
   width="460.94116"
   height="460.9899"
   id="svg2"
   version="1.1"
   inkscape:version="0.48.4 r9939"
   sodipodi:docname="Yin_yang.svg">
  <metadata
     id="metadata18">
    <rdf:RDF>
      <cc:Work
         rdf:about="">
        <dc:format>image/svg+xml</dc:format>
        <dc:type
           rdf:resource="http://purl.org/dc/dcmitype/StillImage" />
        <dc:title></dc:title>
      </cc:Work>
    </rdf:RDF>
  </metadata>
  <defs
     id="defs16" />
  <sodipodi:namedview
     pagecolor="#ffffff"
     bordercolor="#666666"
     borderopacity="1"
     objecttolerance="10"
     gridtolerance="10"
     guidetolerance="10"
     inkscape:pageopacity="0"
     inkscape:pageshadow="2"
     inkscape:window-width="956"
     inkscape:window-height="1041"
     id="namedview14"
     showgrid="false"
     fit-margin-top="0"
     fit-margin-left="0"
     fit-margin-right="0"
     fit-margin-bottom="0"
     inkscape:zoom="0.87553648"
     inkscape:cx="298.13077"
     inkscape:cy="54.432755"
     inkscape:window-x="960"
     inkscape:window-y="18"
     inkscape:window-maximized="0"
     inkscape:current-layer="svg2" />
  <path
     style="fill:#ff0000;stroke:none"
     d="M 216.13681,460.54718 C 185.58548,458.6468 156.78143,451.00852 129.04734,437.45272 62.317924,404.83687 15.148291,341.74353 2.8889132,268.70524 0.48245617,254.36817 -0.01730683,247.64922 4.501721e-4,229.87191 0.01799017,212.31362 0.66551917,204.23145 3.2032312,189.89642 14.121159,128.2232 50.539902,72.763687 102.77774,38.261477 134.13859,17.548167 166.54309,5.721757 204.71525,1.058157 215.10813,-0.21156302 243.16509,-0.37684302 253.54245,0.77053698 304.47821,6.402267 350.46187,27.260577 387.17481,61.386537 c 66.32407,61.650533 90.48855,155.851443 61.97115,241.583413 -15.95191,47.95626 -47.20244,89.39657 -88.81184,117.77047 -42.54514,29.01201 -93.15057,42.98202 -144.19731,39.80676 z m 11.70711,-4.3515 c -31.88919,-2.10509 -56.30478,-12.7256 -77.12979,-33.55061 -17.48828,-17.48828 -28.25092,-38.88298 -31.96271,-63.53766 -1.20238,-7.98651 -1.22571,-23.57353 -0.047,-31.38943 6.29748,-41.75731 34.23245,-76.05406 73.58514,-90.3431 11.2376,-4.0804 22.37065,-6.15314 35.73729,-6.65354 12.12508,-0.45393 22.5332,-1.72772 30.11553,-3.68567 44.71837,-11.54741 77.53937,-48.13879 84.27978,-93.96156 0.98356,-6.68639 0.99424,-24.8202 0.0185,-31.40931 -3.65512,-24.683053 -14.7481,-46.948243 -31.96512,-64.158543 -17.86239,-17.85542 -39.5298,-28.61308 -65.21373,-32.37798 -9.03935,-1.32504 -31.29378,-0.89412 -43.97303,0.85147 -51.91046,7.14668 -96.8331,29.59504 -132.787892,66.35565 C 37.563718,103.96593 17.12776,142.8158 8.3131932,186.75549 c -3.09741,15.44026 -3.729412,22.85168 -3.725412,43.6875 0.0039,20.55159 0.293623,24.25594 3.156511,40.36515 8.8758668,49.94369 35.4192478,96.60372 74.1557918,130.35686 34.368116,29.94671 78.132296,49.04641 123.671776,53.97324 10.70361,1.158 12.15526,1.25278 19.13113,1.24909 3.29798,-0.002 4.7114,-0.088 3.14093,-0.19165 z m 11.25617,-83.92829 c 6.76824,-2.00994 13.87856,-7.71317 17.49371,-14.03179 2.09395,-3.65985 4.09167,-10.84658 4.07722,-14.66767 -0.0287,-7.60104 -3.42556,-15.84014 -8.75431,-21.23396 -12.00173,-12.14829 -30.91685,-12.25556 -42.92895,-0.24347 -11.4641,11.4641 -11.89005,29.61717 -0.97306,41.4693 8.08762,8.78039 19.7961,12.06015 31.08539,8.70759 l 0,0 z"
     id="path2995"
     inkscape:connector-curvature="0" />
  <path
     style="fill:#ff0000;stroke:none"
     d="m 223.30994,146.18843 c -10.19337,-2.58082 -19.04927,-11.45899 -21.74186,-21.79653 -3.99394,-15.33379 5.9907,-31.744283 21.82326,-35.868133 12.224,-3.18395 26.5365,3.14003 32.74369,14.467803 2.09277,3.81921 3.97829,10.62962 3.96638,14.32647 -0.0391,12.12913 -8.86973,24.10153 -20.83592,28.24881 -4.00514,1.38811 -11.73814,1.68937 -15.95555,0.62158 l 0,0 z"
     id="path2997"
     inkscape:connector-curvature="0" />
</svg>
